<svg width="29" height="28" viewBox="0 0 29 28" fill="none" xmlns="http://www.w3.org/2000/svg">
<path d="M3.12842 4.68582V20.7669L8.64193 16.6318C9.03915 16.3327 9.52309 16.1714 10.0203 16.1723H19.2095C20.4783 16.1723 21.5068 15.1438 21.5068 13.875V4.68582C21.5068 3.41705 20.4783 2.38852 19.2095 2.38852H5.42572C4.15695 2.38852 3.12842 3.41705 3.12842 4.68582ZM5.42572 16.1723V4.68582H19.2095V13.875H9.25531C8.75803 13.8737 8.27396 14.035 7.87693 14.3345L5.42572 16.1723Z" fill="#7B7B7B"/>
<path d="M26.1014 25.3615V10.4291C26.1014 9.1603 25.0729 8.13176 23.8041 8.13176V20.7669L21.3529 18.9291C20.9559 18.6296 20.4718 18.4683 19.9745 18.4696H8.87166C8.87166 19.7384 9.9002 20.7669 11.169 20.7669H19.2095C19.7067 20.766 20.1907 20.9273 20.5879 21.2264L26.1014 25.3615Z" fill="#7B7B7B"/>
</svg>
